<?xml version="1.0"?>
<VTKFile type="UnstructuredGrid" version="0.1" byte_order="LittleEndian">
<!--This file was created by meshio v5.3.5-->
<UnstructuredGrid>
<Piece NumberOfPoints="610" NumberOfCells="552">
<Points>
<DataArray type="Float64" Name="Points" NumberOfComponents="3" format="ascii">
-4.00000000000e+01
-4.00000000000e+01
0.00000000000e+00
-3.66666666667e+01
-4.00000000000e+01
0.00000000000e+00
-3.33333333333e+01
-4.00000000000e+01
0.00000000000e+00
-3.00000000000e+01
-4.00000000000e+01
0.00000000000e+00
-2.66666666667e+01
-4.00000000000e+01
0.00000000000e+00
-2.33333333333e+01
-4.00000000000e+01
0.00000000000e+00
-2.00000000000e+01
-4.00000000000e+01
0.00000000000e+00
-1.66666666667e+01
-4.00000000000e+01
0.00000000000e+00
-1.33333333333e+01
-4.00000000000e+01
0.00000000000e+00
-1.00000000000e+01
-4.00000000000e+01
0.00000000000e+00
-6.66666666667e+00
-4.00000000000e+01
0.00000000000e+00
-3.33333333333e+00
-4.00000000000e+01
0.00000000000e+00
0.00000000000e+00
-4.00000000000e+01
0.00000000000e+00
3.33333333333e+00
-4.00000000000e+01
0.00000000000e+00
6.66666666667e+00
-4.00000000000e+01
0.00000000000e+00
1.00000000000e+01
-4.00000000000e+01
0.00000000000e+00
1.33333333333e+01
-4.00000000000e+01
0.00000000000e+00
1.66666666667e+01
-4.00000000000e+01
0.00000000000e+00
2.00000000000e+01
-4.00000000000e+01
0.00000000000e+00
2.33333333333e+01
-4.00000000000e+01
0.00000000000e+00
2.66666666667e+01
-4.00000000000e+01
0.00000000000e+00
3.00000000000e+01
-4.00000000000e+01
0.00000000000e+00
3.33333333333e+01
-4.00000000000e+01
0.00000000000e+00
3.66666666667e+01
-4.00000000000e+01
0.00000000000e+00
4.00000000000e+01
-4.00000000000e+01
0.00000000000e+00
-4.00000000000e+01
-3.66666666667e+01
0.00000000000e+00
-3.66666666667e+01
-3.66666666667e+01
0.00000000000e+00
-3.33333333333e+01
-3.66666666667e+01
0.00000000000e+00
-3.00000000000e+01
-3.66666666667e+01
0.00000000000e+00
-2.66666666667e+01
-3.66666666667e+01
0.00000000000e+00
-2.33333333333e+01
-3.66666666667e+01
0.00000000000e+00
-2.00000000000e+01
-3.66666666667e+01
0.00000000000e+00
-1.66666666667e+01
-3.66666666667e+01
0.00000000000e+00
-1.33333333333e+01
-3.66666666667e+01
0.00000000000e+00
-1.00000000000e+01
-3.66666666667e+01
0.00000000000e+00
-6.66666666667e+00
-3.66666666667e+01
0.00000000000e+00
-3.33333333333e+00
-3.66666666667e+01
0.00000000000e+00
0.00000000000e+00
-3.66666666667e+01
0.00000000000e+00
3.33333333333e+00
-3.66666666667e+01
0.00000000000e+00
6.66666666667e+00
-3.66666666667e+01
0.00000000000e+00
1.00000000000e+01
-3.66666666667e+01
0.00000000000e+00
1.33333333333e+01
-3.66666666667e+01
0.00000000000e+00
1.66666666667e+01
-3.66666666667e+01
0.00000000000e+00
2.00000000000e+01
-3.66666666667e+01
0.00000000000e+00
2.33333333333e+01
-3.66666666667e+01
0.00000000000e+00
2.66666666667e+01
-3.66666666667e+01
0.00000000000e+00
3.00000000000e+01
-3.66666666667e+01
0.00000000000e+00
3.33333333333e+01
-3.66666666667e+01
0.00000000000e+00
3.66666666667e+01
-3.66666666667e+01
0.00000000000e+00
4.00000000000e+01
-3.66666666667e+01
0.00000000000e+00
-4.00000000000e+01
-3.33333333333e+01
0.00000000000e+00
-3.66666666667e+01
-3.33333333333e+01
0.00000000000e+00
-3.33333333333e+01
-3.33333333333e+01
0.00000000000e+00
-3.00000000000e+01
-3.33333333333e+01
0.00000000000e+00
-2.66666666667e+01
-3.33333333333e+01
0.00000000000e+00
-2.33333333333e+01
-3.33333333333e+01
0.00000000000e+00
-2.00000000000e+01
-3.33333333333e+01
0.00000000000e+00
-1.66666666667e+01
-3.33333333333e+01
0.00000000000e+00
-1.33333333333e+01
-3.33333333333e+01
0.00000000000e+00
-1.00000000000e+01
-3.33333333333e+01
0.00000000000e+00
-6.66666666667e+00
-3.33333333333e+01
0.00000000000e+00
-3.33333333333e+00
-3.33333333333e+01
0.00000000000e+00
0.00000000000e+00
-3.33333333333e+01
0.00000000000e+00
3.33333333333e+00
-3.33333333333e+01
0.00000000000e+00
6.66666666667e+00
-3.33333333333e+01
0.00000000000e+00
1.00000000000e+01
-3.33333333333e+01
0.00000000000e+00
1.33333333333e+01
-3.33333333333e+01
0.00000000000e+00
1.66666666667e+01
-3.33333333333e+01
0.00000000000e+00
2.00000000000e+01
-3.33333333333e+01
0.00000000000e+00
2.33333333333e+01
-3.33333333333e+01
0.00000000000e+00
2.66666666667e+01
-3.33333333333e+01
0.00000000000e+00
3.00000000000e+01
-3.33333333333e+01
0.00000000000e+00
3.33333333333e+01
-3.33333333333e+01
0.00000000000e+00
3.66666666667e+01
-3.33333333333e+01
0.00000000000e+00
4.00000000000e+01
-3.33333333333e+01
0.00000000000e+00
-4.00000000000e+01
-3.00000000000e+01
0.00000000000e+00
-3.66666666667e+01
-3.00000000000e+01
0.00000000000e+00
-3.33333333333e+01
-3.00000000000e+01
0.00000000000e+00
-3.00000000000e+01
-3.00000000000e+01
0.00000000000e+00
-2.66666666667e+01
-3.00000000000e+01
0.00000000000e+00
-2.33333333333e+01
-3.00000000000e+01
0.00000000000e+00
-2.00000000000e+01
-3.00000000000e+01
0.00000000000e+00
-1.66666666667e+01
-3.00000000000e+01
0.00000000000e+00
-1.33333333333e+01
-3.00000000000e+01
0.00000000000e+00
-1.00000000000e+01
-3.00000000000e+01
0.00000000000e+00
-6.66666666667e+00
-3.00000000000e+01
0.00000000000e+00
-3.33333333333e+00
-3.00000000000e+01
0.00000000000e+00
0.00000000000e+00
-3.00000000000e+01
0.00000000000e+00
3.33333333333e+00
-3.00000000000e+01
0.00000000000e+00
6.66666666667e+00
-3.00000000000e+01
0.00000000000e+00
1.00000000000e+01
-3.00000000000e+01
0.00000000000e+00
1.33333333333e+01
-3.00000000000e+01
0.00000000000e+00
1.66666666667e+01
-3.00000000000e+01
0.00000000000e+00
2.00000000000e+01
-3.00000000000e+01
0.00000000000e+00
2.33333333333e+01
-3.00000000000e+01
0.00000000000e+00
2.66666666667e+01
-3.00000000000e+01
0.00000000000e+00
3.00000000000e+01
-3.00000000000e+01
0.00000000000e+00
3.33333333333e+01
-3.00000000000e+01
0.00000000000e+00
3.66666666667e+01
-3.00000000000e+01
0.00000000000e+00
4.00000000000e+01
-3.00000000000e+01
0.00000000000e+00
-4.00000000000e+01
-2.66666666667e+01
0.00000000000e+00
-3.66666666667e+01
-2.66666666667e+01
0.00000000000e+00
-3.33333333333e+01
-2.66666666667e+01
0.00000000000e+00
-3.00000000000e+01
-2.66666666667e+01
0.00000000000e+00
-2.66666666667e+01
-2.66666666667e+01
0.00000000000e+00
-2.33333333333e+01
-2.66666666667e+01
0.00000000000e+00
-2.00000000000e+01
-2.66666666667e+01
0.00000000000e+00
-1.66666666667e+01
-2.66666666667e+01
0.00000000000e+00
-1.33333333333e+01
-2.66666666667e+01
0.00000000000e+00
-1.00000000000e+01
-2.66666666667e+01
0.00000000000e+00
-6.66666666667e+00
-2.66666666667e+01
0.00000000000e+00
-3.33333333333e+00
-2.66666666667e+01
0.00000000000e+00
0.00000000000e+00
-2.66666666667e+01
0.00000000000e+00
3.33333333333e+00
-2.66666666667e+01
0.00000000000e+00
6.66666666667e+00
-2.66666666667e+01
0.00000000000e+00
1.00000000000e+01
-2.66666666667e+01
0.00000000000e+00
1.33333333333e+01
-2.66666666667e+01
0.00000000000e+00
1.66666666667e+01
-2.66666666667e+01
0.00000000000e+00
2.00000000000e+01
-2.66666666667e+01
0.00000000000e+00
2.33333333333e+01
-2.66666666667e+01
0.00000000000e+00
2.66666666667e+01
-2.66666666667e+01
0.00000000000e+00
3.00000000000e+01
-2.66666666667e+01
0.00000000000e+00
3.33333333333e+01
-2.66666666667e+01
0.00000000000e+00
3.66666666667e+01
-2.66666666667e+01
0.00000000000e+00
4.00000000000e+01
-2.66666666667e+01
0.00000000000e+00
-4.00000000000e+01
-2.33333333333e+01
0.00000000000e+00
-3.66666666667e+01
-2.33333333333e+01
0.00000000000e+00
-3.33333333333e+01
-2.33333333333e+01
0.00000000000e+00
-3.00000000000e+01
-2.33333333333e+01
0.00000000000e+00
-2.66666666667e+01
-2.33333333333e+01
0.00000000000e+00
-2.33333333333e+01
-2.33333333333e+01
0.00000000000e+00
-2.00000000000e+01
-2.33333333333e+01
0.00000000000e+00
-1.66666666667e+01
-2.33333333333e+01
0.00000000000e+00
-1.33333333333e+01
-2.33333333333e+01
0.00000000000e+00
-1.00000000000e+01
-2.33333333333e+01
0.00000000000e+00
-6.66666666667e+00
-2.33333333333e+01
0.00000000000e+00
-3.33333333333e+00
-2.33333333333e+01
0.00000000000e+00
0.00000000000e+00
-2.33333333333e+01
0.00000000000e+00
3.33333333333e+00
-2.33333333333e+01
0.00000000000e+00
6.66666666667e+00
-2.33333333333e+01
0.00000000000e+00
1.00000000000e+01
-2.33333333333e+01
0.00000000000e+00
1.33333333333e+01
-2.33333333333e+01
0.00000000000e+00
1.66666666667e+01
-2.33333333333e+01
0.00000000000e+00
2.00000000000e+01
-2.33333333333e+01
0.00000000000e+00
2.33333333333e+01
-2.33333333333e+01
0.00000000000e+00
2.66666666667e+01
-2.33333333333e+01
0.00000000000e+00
3.00000000000e+01
-2.33333333333e+01
0.00000000000e+00
3.33333333333e+01
-2.33333333333e+01
0.00000000000e+00
3.66666666667e+01
-2.33333333333e+01
0.00000000000e+00
4.00000000000e+01
-2.33333333333e+01
0.00000000000e+00
-4.00000000000e+01
-2.00000000000e+01
0.00000000000e+00
-3.66666666667e+01
-2.00000000000e+01
0.00000000000e+00
-3.33333333333e+01
-2.00000000000e+01
0.00000000000e+00
-3.00000000000e+01
-2.00000000000e+01
0.00000000000e+00
-2.66666666667e+01
-2.00000000000e+01
0.00000000000e+00
-2.33333333333e+01
-2.00000000000e+01
0.00000000000e+00
-2.00000000000e+01
-2.00000000000e+01
0.00000000000e+00
-1.66666666667e+01
-2.00000000000e+01
0.00000000000e+00
-1.33333333333e+01
-2.00000000000e+01
0.00000000000e+00
-1.00000000000e+01
-2.00000000000e+01
0.00000000000e+00
-6.66666666667e+00
-2.00000000000e+01
0.00000000000e+00
-3.33333333333e+00
-2.00000000000e+01
0.00000000000e+00
0.00000000000e+00
-2.00000000000e+01
0.00000000000e+00
3.33333333333e+00
-2.00000000000e+01
0.00000000000e+00
6.66666666667e+00
-2.00000000000e+01
0.00000000000e+00
1.00000000000e+01
-2.00000000000e+01
0.00000000000e+00
1.33333333333e+01
-2.00000000000e+01
0.00000000000e+00
1.66666666667e+01
-2.00000000000e+01
0.00000000000e+00
2.00000000000e+01
-2.00000000000e+01
0.00000000000e+00
2.33333333333e+01
-2.00000000000e+01
0.00000000000e+00
2.66666666667e+01
-2.00000000000e+01
0.00000000000e+00
3.00000000000e+01
-2.00000000000e+01
0.00000000000e+00
3.33333333333e+01
-2.00000000000e+01
0.00000000000e+00
3.66666666667e+01
-2.00000000000e+01
0.00000000000e+00
4.00000000000e+01
-2.00000000000e+01
0.00000000000e+00
-4.00000000000e+01
-1.66666666667e+01
0.00000000000e+00
-3.66666666667e+01
-1.66666666667e+01
0.00000000000e+00
-3.33333333333e+01
-1.66666666667e+01
0.00000000000e+00
-3.00000000000e+01
-1.66666666667e+01
0.00000000000e+00
-2.66666666667e+01
-1.66666666667e+01
0.00000000000e+00
-2.33333333333e+01
-1.66666666667e+01
0.00000000000e+00
-2.00000000000e+01
-1.66666666667e+01
0.00000000000e+00
-1.66666666667e+01
-1.66666666667e+01
0.00000000000e+00
-1.33333333333e+01
-1.66666666667e+01
0.00000000000e+00
-1.00000000000e+01
-1.66666666667e+01
0.00000000000e+00
-6.66666666667e+00
-1.66666666667e+01
0.00000000000e+00
-3.33333333333e+00
-1.66666666667e+01
0.00000000000e+00
0.00000000000e+00
-1.66666666667e+01
0.00000000000e+00
3.33333333333e+00
-1.66666666667e+01
0.00000000000e+00
6.66666666667e+00
-1.66666666667e+01
0.00000000000e+00
1.00000000000e+01
-1.66666666667e+01
0.00000000000e+00
1.33333333333e+01
-1.66666666667e+01
0.00000000000e+00
1.66666666667e+01
-1.66666666667e+01
0.00000000000e+00
2.00000000000e+01
-1.66666666667e+01
0.00000000000e+00
2.33333333333e+01
-1.66666666667e+01
0.00000000000e+00
2.66666666667e+01
-1.66666666667e+01
0.00000000000e+00
3.00000000000e+01
-1.66666666667e+01
0.00000000000e+00
3.33333333333e+01
-1.66666666667e+01
0.00000000000e+00
3.66666666667e+01
-1.66666666667e+01
0.00000000000e+00
4.00000000000e+01
-1.66666666667e+01
0.00000000000e+00
-4.00000000000e+01
-1.33333333333e+01
0.00000000000e+00
-3.66666666667e+01
-1.33333333333e+01
0.00000000000e+00
-3.33333333333e+01
-1.33333333333e+01
0.00000000000e+00
-3.00000000000e+01
-1.33333333333e+01
0.00000000000e+00
-2.66666666667e+01
-1.33333333333e+01
0.00000000000e+00
-2.33333333333e+01
-1.33333333333e+01
0.00000000000e+00
-2.00000000000e+01
-1.33333333333e+01
0.00000000000e+00
-1.66666666667e+01
-1.33333333333e+01
0.00000000000e+00
-1.33333333333e+01
-1.33333333333e+01
0.00000000000e+00
-1.00000000000e+01
-1.33333333333e+01
0.00000000000e+00
-6.66666666667e+00
-1.33333333333e+01
0.00000000000e+00
-3.33333333333e+00
-1.33333333333e+01
0.00000000000e+00
0.00000000000e+00
-1.33333333333e+01
0.00000000000e+00
3.33333333333e+00
-1.33333333333e+01
0.00000000000e+00
6.66666666667e+00
-1.33333333333e+01
0.00000000000e+00
1.00000000000e+01
-1.33333333333e+01
0.00000000000e+00
1.33333333333e+01
-1.33333333333e+01
0.00000000000e+00
1.66666666667e+01
-1.33333333333e+01
0.00000000000e+00
2.00000000000e+01
-1.33333333333e+01
0.00000000000e+00
2.33333333333e+01
-1.33333333333e+01
0.00000000000e+00
2.66666666667e+01
-1.33333333333e+01
0.00000000000e+00
3.00000000000e+01
-1.33333333333e+01
0.00000000000e+00
3.33333333333e+01
-1.33333333333e+01
0.00000000000e+00
3.66666666667e+01
-1.33333333333e+01
0.00000000000e+00
4.00000000000e+01
-1.33333333333e+01
0.00000000000e+00
-4.00000000000e+01
-1.00000000000e+01
0.00000000000e+00
-3.66666666667e+01
-1.00000000000e+01
0.00000000000e+00
-3.33333333333e+01
-1.00000000000e+01
0.00000000000e+00
-3.00000000000e+01
-1.00000000000e+01
0.00000000000e+00
-2.66666666667e+01
-1.00000000000e+01
0.00000000000e+00
-2.33333333333e+01
-1.00000000000e+01
0.00000000000e+00
-2.00000000000e+01
-1.00000000000e+01
0.00000000000e+00
-1.66666666667e+01
-1.00000000000e+01
0.00000000000e+00
-1.33333333333e+01
-1.00000000000e+01
0.00000000000e+00
-1.00000000000e+01
-1.00000000000e+01
0.00000000000e+00
-6.66666666667e+00
-1.00000000000e+01
0.00000000000e+00
-3.33333333333e+00
-1.00000000000e+01
0.00000000000e+00
0.00000000000e+00
-1.00000000000e+01
0.00000000000e+00
3.33333333333e+00
-1.00000000000e+01
0.00000000000e+00
6.66666666667e+00
-1.00000000000e+01
0.00000000000e+00
1.00000000000e+01
-1.00000000000e+01
0.00000000000e+00
1.33333333333e+01
-1.00000000000e+01
0.00000000000e+00
1.66666666667e+01
-1.00000000000e+01
0.00000000000e+00
2.00000000000e+01
-1.00000000000e+01
0.00000000000e+00
2.33333333333e+01
-1.00000000000e+01
0.00000000000e+00
2.66666666667e+01
-1.00000000000e+01
0.00000000000e+00
3.00000000000e+01
-1.00000000000e+01
0.00000000000e+00
3.33333333333e+01
-1.00000000000e+01
0.00000000000e+00
3.66666666667e+01
-1.00000000000e+01
0.00000000000e+00
4.00000000000e+01
-1.00000000000e+01
0.00000000000e+00
-4.00000000000e+01
-6.66666666667e+00
0.00000000000e+00
-3.66666666667e+01
-6.66666666667e+00
0.00000000000e+00
-3.33333333333e+01
-6.66666666667e+00
0.00000000000e+00
-3.00000000000e+01
-6.66666666667e+00
0.00000000000e+00
-2.66666666667e+01
-6.66666666667e+00
0.00000000000e+00
-2.33333333333e+01
-6.66666666667e+00
0.00000000000e+00
-2.00000000000e+01
-6.66666666667e+00
0.00000000000e+00
-1.66666666667e+01
-6.66666666667e+00
0.00000000000e+00
-1.33333333333e+01
-6.66666666667e+00
0.00000000000e+00
-1.00000000000e+01
-6.66666666667e+00
0.00000000000e+00
-6.66666666667e+00
-6.66666666667e+00
0.00000000000e+00
-3.33333333333e+00
-6.66666666667e+00
0.00000000000e+00
0.00000000000e+00
-6.66666666667e+00
0.00000000000e+00
3.33333333333e+00
-6.66666666667e+00
0.00000000000e+00
6.66666666667e+00
-6.66666666667e+00
0.00000000000e+00
1.00000000000e+01
-6.66666666667e+00
0.00000000000e+00
1.33333333333e+01
-6.66666666667e+00
0.00000000000e+00
1.66666666667e+01
-6.66666666667e+00
0.00000000000e+00
2.00000000000e+01
-6.66666666667e+00
0.00000000000e+00
2.33333333333e+01
-6.66666666667e+00
0.00000000000e+00
2.66666666667e+01
-6.66666666667e+00
0.00000000000e+00
3.00000000000e+01
-6.66666666667e+00
0.00000000000e+00
3.33333333333e+01
-6.66666666667e+00
0.00000000000e+00
3.66666666667e+01
-6.66666666667e+00
0.00000000000e+00
4.00000000000e+01
-6.66666666667e+00
0.00000000000e+00
-4.00000000000e+01
-3.33333333333e+00
0.00000000000e+00
-3.66666666667e+01
-3.33333333333e+00
0.00000000000e+00
-3.33333333333e+01
-3.33333333333e+00
0.00000000000e+00
-3.00000000000e+01
-3.33333333333e+00
0.00000000000e+00
-2.66666666667e+01
-3.33333333333e+00
0.00000000000e+00
-2.33333333333e+01
-3.33333333333e+00
0.00000000000e+00
-2.00000000000e+01
-3.33333333333e+00
0.00000000000e+00
-1.66666666667e+01
-3.33333333333e+00
0.00000000000e+00
-1.33333333333e+01
-3.33333333333e+00
0.00000000000e+00
-1.00000000000e+01
-3.33333333333e+00
0.00000000000e+00
1.00000000000e+01
-3.33333333333e+00
0.00000000000e+00
1.33333333333e+01
-3.33333333333e+00
0.00000000000e+00
1.66666666667e+01
-3.33333333333e+00
0.00000000000e+00
2.00000000000e+01
-3.33333333333e+00
0.00000000000e+00
2.33333333333e+01
-3.33333333333e+00
0.00000000000e+00
2.66666666667e+01
-3.33333333333e+00
0.00000000000e+00
3.00000000000e+01
-3.33333333333e+00
0.00000000000e+00
3.33333333333e+01
-3.33333333333e+00
0.00000000000e+00
3.66666666667e+01
-3.33333333333e+00
0.00000000000e+00
4.00000000000e+01
-3.33333333333e+00
0.00000000000e+00
-4.00000000000e+01
0.00000000000e+00
0.00000000000e+00
-3.66666666667e+01
0.00000000000e+00
0.00000000000e+00
-3.33333333333e+01
0.00000000000e+00
0.00000000000e+00
-3.00000000000e+01
0.00000000000e+00
0.00000000000e+00
-2.66666666667e+01
0.00000000000e+00
0.00000000000e+00
-2.33333333333e+01
0.00000000000e+00
0.00000000000e+00
-2.00000000000e+01
0.00000000000e+00
0.00000000000e+00
-1.66666666667e+01
0.00000000000e+00
0.00000000000e+00
-1.33333333333e+01
0.00000000000e+00
0.00000000000e+00
-1.00000000000e+01
0.00000000000e+00
0.00000000000e+00
1.00000000000e+01
0.00000000000e+00
0.00000000000e+00
1.33333333333e+01
0.00000000000e+00
0.00000000000e+00
1.66666666667e+01
0.00000000000e+00
0.00000000000e+00
2.00000000000e+01
0.00000000000e+00
0.00000000000e+00
2.33333333333e+01
0.00000000000e+00
0.00000000000e+00
2.66666666667e+01
0.00000000000e+00
0.00000000000e+00
3.00000000000e+01
0.00000000000e+00
0.00000000000e+00
3.33333333333e+01
0.00000000000e+00
0.00000000000e+00
3.66666666667e+01
0.00000000000e+00
0.00000000000e+00
4.00000000000e+01
0.00000000000e+00
0.00000000000e+00
-4.00000000000e+01
3.33333333333e+00
0.00000000000e+00
-3.66666666667e+01
3.33333333333e+00
0.00000000000e+00
-3.33333333333e+01
3.33333333333e+00
0.00000000000e+00
-3.00000000000e+01
3.33333333333e+00
0.00000000000e+00
-2.66666666667e+01
3.33333333333e+00
0.00000000000e+00
-2.33333333333e+01
3.33333333333e+00
0.00000000000e+00
-2.00000000000e+01
3.33333333333e+00
0.00000000000e+00
-1.66666666667e+01
3.33333333333e+00
0.00000000000e+00
-1.33333333333e+01
3.33333333333e+00
0.00000000000e+00
-1.00000000000e+01
3.33333333333e+00
0.00000000000e+00
1.00000000000e+01
3.33333333333e+00
0.00000000000e+00
1.33333333333e+01
3.33333333333e+00
0.00000000000e+00
1.66666666667e+01
3.33333333333e+00
0.00000000000e+00
2.00000000000e+01
3.33333333333e+00
0.00000000000e+00
2.33333333333e+01
3.33333333333e+00
0.00000000000e+00
2.66666666667e+01
3.33333333333e+00
0.00000000000e+00
3.00000000000e+01
3.33333333333e+00
0.00000000000e+00
3.33333333333e+01
3.33333333333e+00
0.00000000000e+00
3.66666666667e+01
3.33333333333e+00
0.00000000000e+00
4.00000000000e+01
3.33333333333e+00
0.00000000000e+00
-4.00000000000e+01
6.66666666667e+00
0.00000000000e+00
-3.66666666667e+01
6.66666666667e+00
0.00000000000e+00
-3.33333333333e+01
6.66666666667e+00
0.00000000000e+00
-3.00000000000e+01
6.66666666667e+00
0.00000000000e+00
-2.66666666667e+01
6.66666666667e+00
0.00000000000e+00
-2.33333333333e+01
6.66666666667e+00
0.00000000000e+00
-2.00000000000e+01
6.66666666667e+00
0.00000000000e+00
-1.66666666667e+01
6.66666666667e+00
0.00000000000e+00
-1.33333333333e+01
6.66666666667e+00
0.00000000000e+00
-1.00000000000e+01
6.66666666667e+00
0.00000000000e+00
-6.66666666667e+00
6.66666666667e+00
0.00000000000e+00
-3.33333333333e+00
6.66666666667e+00
0.00000000000e+00
0.00000000000e+00
6.66666666667e+00
0.00000000000e+00
3.33333333333e+00
6.66666666667e+00
0.00000000000e+00
6.66666666667e+00
6.66666666667e+00
0.00000000000e+00
1.00000000000e+01
6.66666666667e+00
0.00000000000e+00
1.33333333333e+01
6.66666666667e+00
0.00000000000e+00
1.66666666667e+01
6.66666666667e+00
0.00000000000e+00
2.00000000000e+01
6.66666666667e+00
0.00000000000e+00
2.33333333333e+01
6.66666666667e+00
0.00000000000e+00
2.66666666667e+01
6.66666666667e+00
0.00000000000e+00
3.00000000000e+01
6.66666666667e+00
0.00000000000e+00
3.33333333333e+01
6.66666666667e+00
0.00000000000e+00
3.66666666667e+01
6.66666666667e+00
0.00000000000e+00
4.00000000000e+01
6.66666666667e+00
0.00000000000e+00
-4.00000000000e+01
1.00000000000e+01
0.00000000000e+00
-3.66666666667e+01
1.00000000000e+01
0.00000000000e+00
-3.33333333333e+01
1.00000000000e+01
0.00000000000e+00
-3.00000000000e+01
1.00000000000e+01
0.00000000000e+00
-2.66666666667e+01
1.00000000000e+01
0.00000000000e+00
-2.33333333333e+01
1.00000000000e+01
0.00000000000e+00
-2.00000000000e+01
1.00000000000e+01
0.00000000000e+00
-1.66666666667e+01
1.00000000000e+01
0.00000000000e+00
-1.33333333333e+01
1.00000000000e+01
0.00000000000e+00
-1.00000000000e+01
1.00000000000e+01
0.00000000000e+00
-6.66666666667e+00
1.00000000000e+01
0.00000000000e+00
-3.33333333333e+00
1.00000000000e+01
0.00000000000e+00
0.00000000000e+00
1.00000000000e+01
0.00000000000e+00
3.33333333333e+00
1.00000000000e+01
0.00000000000e+00
6.66666666667e+00
1.00000000000e+01
0.00000000000e+00
1.00000000000e+01
1.00000000000e+01
0.00000000000e+00
1.33333333333e+01
1.00000000000e+01
0.00000000000e+00
1.66666666667e+01
1.00000000000e+01
0.00000000000e+00
2.00000000000e+01
1.00000000000e+01
0.00000000000e+00
2.33333333333e+01
1.00000000000e+01
0.00000000000e+00
2.66666666667e+01
1.00000000000e+01
0.00000000000e+00
3.00000000000e+01
1.00000000000e+01
0.00000000000e+00
3.33333333333e+01
1.00000000000e+01
0.00000000000e+00
3.66666666667e+01
1.00000000000e+01
0.00000000000e+00
4.00000000000e+01
1.00000000000e+01
0.00000000000e+00
-4.00000000000e+01
1.33333333333e+01
0.00000000000e+00
-3.66666666667e+01
1.33333333333e+01
0.00000000000e+00
-3.33333333333e+01
1.33333333333e+01
0.00000000000e+00
-3.00000000000e+01
1.33333333333e+01
0.00000000000e+00
-2.66666666667e+01
1.33333333333e+01
0.00000000000e+00
-2.33333333333e+01
1.33333333333e+01
0.00000000000e+00
-2.00000000000e+01
1.33333333333e+01
0.00000000000e+00
-1.66666666667e+01
1.33333333333e+01
0.00000000000e+00
-1.33333333333e+01
1.33333333333e+01
0.00000000000e+00
-1.00000000000e+01
1.33333333333e+01
0.00000000000e+00
-6.66666666667e+00
1.33333333333e+01
0.00000000000e+00
-3.33333333333e+00
1.33333333333e+01
0.00000000000e+00
0.00000000000e+00
1.33333333333e+01
0.00000000000e+00
3.33333333333e+00
1.33333333333e+01
0.00000000000e+00
6.66666666667e+00
1.33333333333e+01
0.00000000000e+00
1.00000000000e+01
1.33333333333e+01
0.00000000000e+00
1.33333333333e+01
1.33333333333e+01
0.00000000000e+00
1.66666666667e+01
1.33333333333e+01
0.00000000000e+00
2.00000000000e+01
1.33333333333e+01
0.00000000000e+00
2.33333333333e+01
1.33333333333e+01
0.00000000000e+00
2.66666666667e+01
1.33333333333e+01
0.00000000000e+00
3.00000000000e+01
1.33333333333e+01
0.00000000000e+00
3.33333333333e+01
1.33333333333e+01
0.00000000000e+00
3.66666666667e+01
1.33333333333e+01
0.00000000000e+00
4.00000000000e+01
1.33333333333e+01
0.00000000000e+00
-4.00000000000e+01
1.66666666667e+01
0.00000000000e+00
-3.66666666667e+01
1.66666666667e+01
0.00000000000e+00
-3.33333333333e+01
1.66666666667e+01
0.00000000000e+00
-3.00000000000e+01
1.66666666667e+01
0.00000000000e+00
-2.66666666667e+01
1.66666666667e+01
0.00000000000e+00
-2.33333333333e+01
1.66666666667e+01
0.00000000000e+00
-2.00000000000e+01
1.66666666667e+01
0.00000000000e+00
-1.66666666667e+01
1.66666666667e+01
0.00000000000e+00
-1.33333333333e+01
1.66666666667e+01
0.00000000000e+00
-1.00000000000e+01
1.66666666667e+01
0.00000000000e+00
-6.66666666667e+00
1.66666666667e+01
0.00000000000e+00
-3.33333333333e+00
1.66666666667e+01
0.00000000000e+00
0.00000000000e+00
1.66666666667e+01
0.00000000000e+00
3.33333333333e+00
1.66666666667e+01
0.00000000000e+00
6.66666666667e+00
1.66666666667e+01
0.00000000000e+00
1.00000000000e+01
1.66666666667e+01
0.00000000000e+00
1.33333333333e+01
1.66666666667e+01
0.00000000000e+00
1.66666666667e+01
1.66666666667e+01
0.00000000000e+00
2.00000000000e+01
1.66666666667e+01
0.00000000000e+00
2.33333333333e+01
1.66666666667e+01
0.00000000000e+00
2.66666666667e+01
1.66666666667e+01
0.00000000000e+00
3.00000000000e+01
1.66666666667e+01
0.00000000000e+00
3.33333333333e+01
1.66666666667e+01
0.00000000000e+00
3.66666666667e+01
1.66666666667e+01
0.00000000000e+00
4.00000000000e+01
1.66666666667e+01
0.00000000000e+00
-4.00000000000e+01
2.00000000000e+01
0.00000000000e+00
-3.66666666667e+01
2.00000000000e+01
0.00000000000e+00
-3.33333333333e+01
2.00000000000e+01
0.00000000000e+00
-3.00000000000e+01
2.00000000000e+01
0.00000000000e+00
-2.66666666667e+01
2.00000000000e+01
0.00000000000e+00
-2.33333333333e+01
2.00000000000e+01
0.00000000000e+00
-2.00000000000e+01
2.00000000000e+01
0.00000000000e+00
-1.66666666667e+01
2.00000000000e+01
0.00000000000e+00
-1.33333333333e+01
2.00000000000e+01
0.00000000000e+00
-1.00000000000e+01
2.00000000000e+01
0.00000000000e+00
-6.66666666667e+00
2.00000000000e+01
0.00000000000e+00
-3.33333333333e+00
2.00000000000e+01
0.00000000000e+00
0.00000000000e+00
2.00000000000e+01
0.00000000000e+00
3.33333333333e+00
2.00000000000e+01
0.00000000000e+00
6.66666666667e+00
2.00000000000e+01
0.00000000000e+00
1.00000000000e+01
2.00000000000e+01
0.00000000000e+00
1.33333333333e+01
2.00000000000e+01
0.00000000000e+00
1.66666666667e+01
2.00000000000e+01
0.00000000000e+00
2.00000000000e+01
2.00000000000e+01
0.00000000000e+00
2.33333333333e+01
2.00000000000e+01
0.00000000000e+00
2.66666666667e+01
2.00000000000e+01
0.00000000000e+00
3.00000000000e+01
2.00000000000e+01
0.00000000000e+00
3.33333333333e+01
2.00000000000e+01
0.00000000000e+00
3.66666666667e+01
2.00000000000e+01
0.00000000000e+00
4.00000000000e+01
2.00000000000e+01
0.00000000000e+00
-4.00000000000e+01
2.33333333333e+01
0.00000000000e+00
-3.66666666667e+01
2.33333333333e+01
0.00000000000e+00
-3.33333333333e+01
2.33333333333e+01
0.00000000000e+00
-3.00000000000e+01
2.33333333333e+01
0.00000000000e+00
-2.66666666667e+01
2.33333333333e+01
0.00000000000e+00
-2.33333333333e+01
2.33333333333e+01
0.00000000000e+00
-2.00000000000e+01
2.33333333333e+01
0.00000000000e+00
-1.66666666667e+01
2.33333333333e+01
0.00000000000e+00
-1.33333333333e+01
2.33333333333e+01
0.00000000000e+00
-1.00000000000e+01
2.33333333333e+01
0.00000000000e+00
-6.66666666667e+00
2.33333333333e+01
0.00000000000e+00
-3.33333333333e+00
2.33333333333e+01
0.00000000000e+00
0.00000000000e+00
2.33333333333e+01
0.00000000000e+00
3.33333333333e+00
2.33333333333e+01
0.00000000000e+00
6.66666666667e+00
2.33333333333e+01
0.00000000000e+00
1.00000000000e+01
2.33333333333e+01
0.00000000000e+00
1.33333333333e+01
2.33333333333e+01
0.00000000000e+00
1.66666666667e+01
2.33333333333e+01
0.00000000000e+00
2.00000000000e+01
2.33333333333e+01
0.00000000000e+00
2.33333333333e+01
2.33333333333e+01
0.00000000000e+00
2.66666666667e+01
2.33333333333e+01
0.00000000000e+00
3.00000000000e+01
2.33333333333e+01
0.00000000000e+00
3.33333333333e+01
2.33333333333e+01
0.00000000000e+00
3.66666666667e+01
2.33333333333e+01
0.00000000000e+00
4.00000000000e+01
2.33333333333e+01
0.00000000000e+00
-4.00000000000e+01
2.66666666667e+01
0.00000000000e+00
-3.66666666667e+01
2.66666666667e+01
0.00000000000e+00
-3.33333333333e+01
2.66666666667e+01
0.00000000000e+00
-3.00000000000e+01
2.66666666667e+01
0.00000000000e+00
-2.66666666667e+01
2.66666666667e+01
0.00000000000e+00
-2.33333333333e+01
2.66666666667e+01
0.00000000000e+00
-2.00000000000e+01
2.66666666667e+01
0.00000000000e+00
-1.66666666667e+01
2.66666666667e+01
0.00000000000e+00
-1.33333333333e+01
2.66666666667e+01
0.00000000000e+00
-1.00000000000e+01
2.66666666667e+01
0.00000000000e+00
-6.66666666667e+00
2.66666666667e+01
0.00000000000e+00
-3.33333333333e+00
2.66666666667e+01
0.00000000000e+00
0.00000000000e+00
2.66666666667e+01
0.00000000000e+00
3.33333333333e+00
2.66666666667e+01
0.00000000000e+00
6.66666666667e+00
2.66666666667e+01
0.00000000000e+00
1.00000000000e+01
2.66666666667e+01
0.00000000000e+00
1.33333333333e+01
2.66666666667e+01
0.00000000000e+00
1.66666666667e+01
2.66666666667e+01
0.00000000000e+00
2.00000000000e+01
2.66666666667e+01
0.00000000000e+00
2.33333333333e+01
2.66666666667e+01
0.00000000000e+00
2.66666666667e+01
2.66666666667e+01
0.00000000000e+00
3.00000000000e+01
2.66666666667e+01
0.00000000000e+00
3.33333333333e+01
2.66666666667e+01
0.00000000000e+00
3.66666666667e+01
2.66666666667e+01
0.00000000000e+00
4.00000000000e+01
2.66666666667e+01
0.00000000000e+00
-4.00000000000e+01
3.00000000000e+01
0.00000000000e+00
-3.66666666667e+01
3.00000000000e+01
0.00000000000e+00
-3.33333333333e+01
3.00000000000e+01
0.00000000000e+00
-3.00000000000e+01
3.00000000000e+01
0.00000000000e+00
-2.66666666667e+01
3.00000000000e+01
0.00000000000e+00
-2.33333333333e+01
3.00000000000e+01
0.00000000000e+00
-2.00000000000e+01
3.00000000000e+01
0.00000000000e+00
-1.66666666667e+01
3.00000000000e+01
0.00000000000e+00
-1.33333333333e+01
3.00000000000e+01
0.00000000000e+00
-1.00000000000e+01
3.00000000000e+01
0.00000000000e+00
-6.66666666667e+00
3.00000000000e+01
0.00000000000e+00
-3.33333333333e+00
3.00000000000e+01
0.00000000000e+00
0.00000000000e+00
3.00000000000e+01
0.00000000000e+00
3.33333333333e+00
3.00000000000e+01
0.00000000000e+00
6.66666666667e+00
3.00000000000e+01
0.00000000000e+00
1.00000000000e+01
3.00000000000e+01
0.00000000000e+00
1.33333333333e+01
3.00000000000e+01
0.00000000000e+00
1.66666666667e+01
3.00000000000e+01
0.00000000000e+00
2.00000000000e+01
3.00000000000e+01
0.00000000000e+00
2.33333333333e+01
3.00000000000e+01
0.00000000000e+00
2.66666666667e+01
3.00000000000e+01
0.00000000000e+00
3.00000000000e+01
3.00000000000e+01
0.00000000000e+00
3.33333333333e+01
3.00000000000e+01
0.00000000000e+00
3.66666666667e+01
3.00000000000e+01
0.00000000000e+00
4.00000000000e+01
3.00000000000e+01
0.00000000000e+00
-4.00000000000e+01
3.33333333333e+01
0.00000000000e+00
-3.66666666667e+01
3.33333333333e+01
0.00000000000e+00
-3.33333333333e+01
3.33333333333e+01
0.00000000000e+00
-3.00000000000e+01
3.33333333333e+01
0.00000000000e+00
-2.66666666667e+01
3.33333333333e+01
0.00000000000e+00
-2.33333333333e+01
3.33333333333e+01
0.00000000000e+00
-2.00000000000e+01
3.33333333333e+01
0.00000000000e+00
-1.66666666667e+01
3.33333333333e+01
0.00000000000e+00
-1.33333333333e+01
3.33333333333e+01
0.00000000000e+00
-1.00000000000e+01
3.33333333333e+01
0.00000000000e+00
-6.66666666667e+00
3.33333333333e+01
0.00000000000e+00
-3.33333333333e+00
3.33333333333e+01
0.00000000000e+00
0.00000000000e+00
3.33333333333e+01
0.00000000000e+00
3.33333333333e+00
3.33333333333e+01
0.00000000000e+00
6.66666666667e+00
3.33333333333e+01
0.00000000000e+00
1.00000000000e+01
3.33333333333e+01
0.00000000000e+00
1.33333333333e+01
3.33333333333e+01
0.00000000000e+00
1.66666666667e+01
3.33333333333e+01
0.00000000000e+00
2.00000000000e+01
3.33333333333e+01
0.00000000000e+00
2.33333333333e+01
3.33333333333e+01
0.00000000000e+00
2.66666666667e+01
3.33333333333e+01
0.00000000000e+00
3.00000000000e+01
3.33333333333e+01
0.00000000000e+00
3.33333333333e+01
3.33333333333e+01
0.00000000000e+00
3.66666666667e+01
3.33333333333e+01
0.00000000000e+00
4.00000000000e+01
3.33333333333e+01
0.00000000000e+00
-4.00000000000e+01
3.66666666667e+01
0.00000000000e+00
-3.66666666667e+01
3.66666666667e+01
0.00000000000e+00
-3.33333333333e+01
3.66666666667e+01
0.00000000000e+00
-3.00000000000e+01
3.66666666667e+01
0.00000000000e+00
-2.66666666667e+01
3.66666666667e+01
0.00000000000e+00
-2.33333333333e+01
3.66666666667e+01
0.00000000000e+00
-2.00000000000e+01
3.66666666667e+01
0.00000000000e+00
-1.66666666667e+01
3.66666666667e+01
0.00000000000e+00
-1.33333333333e+01
3.66666666667e+01
0.00000000000e+00
-1.00000000000e+01
3.66666666667e+01
0.00000000000e+00
-6.66666666667e+00
3.66666666667e+01
0.00000000000e+00
-3.33333333333e+00
3.66666666667e+01
0.00000000000e+00
0.00000000000e+00
3.66666666667e+01
0.00000000000e+00
3.33333333333e+00
3.66666666667e+01
0.00000000000e+00
6.66666666667e+00
3.66666666667e+01
0.00000000000e+00
1.00000000000e+01
3.66666666667e+01
0.00000000000e+00
1.33333333333e+01
3.66666666667e+01
0.00000000000e+00
1.66666666667e+01
3.66666666667e+01
0.00000000000e+00
2.00000000000e+01
3.66666666667e+01
0.00000000000e+00
2.33333333333e+01
3.66666666667e+01
0.00000000000e+00
2.66666666667e+01
3.66666666667e+01
0.00000000000e+00
3.00000000000e+01
3.66666666667e+01
0.00000000000e+00
3.33333333333e+01
3.66666666667e+01
0.00000000000e+00
3.66666666667e+01
3.66666666667e+01
0.00000000000e+00
4.00000000000e+01
3.66666666667e+01
0.00000000000e+00
-4.00000000000e+01
4.00000000000e+01
0.00000000000e+00
-3.66666666667e+01
4.00000000000e+01
0.00000000000e+00
-3.33333333333e+01
4.00000000000e+01
0.00000000000e+00
-3.00000000000e+01
4.00000000000e+01
0.00000000000e+00
-2.66666666667e+01
4.00000000000e+01
0.00000000000e+00
-2.33333333333e+01
4.00000000000e+01
0.00000000000e+00
-2.00000000000e+01
4.00000000000e+01
0.00000000000e+00
-1.66666666667e+01
4.00000000000e+01
0.00000000000e+00
-1.33333333333e+01
4.00000000000e+01
0.00000000000e+00
-1.00000000000e+01
4.00000000000e+01
0.00000000000e+00
-6.66666666667e+00
4.00000000000e+01
0.00000000000e+00
-3.33333333333e+00
4.00000000000e+01
0.00000000000e+00
0.00000000000e+00
4.00000000000e+01
0.00000000000e+00
3.33333333333e+00
4.00000000000e+01
0.00000000000e+00
6.66666666667e+00
4.00000000000e+01
0.00000000000e+00
1.00000000000e+01
4.00000000000e+01
0.00000000000e+00
1.33333333333e+01
4.00000000000e+01
0.00000000000e+00
1.66666666667e+01
4.00000000000e+01
0.00000000000e+00
2.00000000000e+01
4.00000000000e+01
0.00000000000e+00
2.33333333333e+01
4.00000000000e+01
0.00000000000e+00
2.66666666667e+01
4.00000000000e+01
0.00000000000e+00
3.00000000000e+01
4.00000000000e+01
0.00000000000e+00
3.33333333333e+01
4.00000000000e+01
0.00000000000e+00
3.66666666667e+01
4.00000000000e+01
0.00000000000e+00
4.00000000000e+01
4.00000000000e+01
0.00000000000e+00

</DataArray>
</Points>
<Cells>
<DataArray type="Int64" Name="connectivity" format="ascii">
0
1
26
25
1
2
27
26
2
3
28
27
3
4
29
28
4
5
30
29
5
6
31
30
6
7
32
31
7
8
33
32
8
9
34
33
9
10
35
34
10
11
36
35
11
12
37
36
12
13
38
37
13
14
39
38
14
15
40
39
15
16
41
40
16
17
42
41
17
18
43
42
18
19
44
43
19
20
45
44
20
21
46
45
21
22
47
46
22
23
48
47
23
24
49
48
25
26
51
50
26
27
52
51
27
28
53
52
28
29
54
53
29
30
55
54
30
31
56
55
31
32
57
56
32
33
58
57
33
34
59
58
34
35
60
59
35
36
61
60
36
37
62
61
37
38
63
62
38
39
64
63
39
40
65
64
40
41
66
65
41
42
67
66
42
43
68
67
43
44
69
68
44
45
70
69
45
46
71
70
46
47
72
71
47
48
73
72
48
49
74
73
50
51
76
75
51
52
77
76
52
53
78
77
53
54
79
78
54
55
80
79
55
56
81
80
56
57
82
81
57
58
83
82
58
59
84
83
59
60
85
84
60
61
86
85
61
62
87
86
62
63
88
87
63
64
89
88
64
65
90
89
65
66
91
90
66
67
92
91
67
68
93
92
68
69
94
93
69
70
95
94
70
71
96
95
71
72
97
96
72
73
98
97
73
74
99
98
75
76
101
100
76
77
102
101
77
78
103
102
78
79
104
103
79
80
105
104
80
81
106
105
81
82
107
106
82
83
108
107
83
84
109
108
84
85
110
109
85
86
111
110
86
87
112
111
87
88
113
112
88
89
114
113
89
90
115
114
90
91
116
115
91
92
117
116
92
93
118
117
93
94
119
118
94
95
120
119
95
96
121
120
96
97
122
121
97
98
123
122
98
99
124
123
100
101
126
125
101
102
127
126
102
103
128
127
103
104
129
128
104
105
130
129
105
106
131
130
106
107
132
131
107
108
133
132
108
109
134
133
109
110
135
134
110
111
136
135
111
112
137
136
112
113
138
137
113
114
139
138
114
115
140
139
115
116
141
140
116
117
142
141
117
118
143
142
118
119
144
143
119
120
145
144
120
121
146
145
121
122
147
146
122
123
148
147
123
124
149
148
125
126
151
150
126
127
152
151
127
128
153
152
128
129
154
153
129
130
155
154
130
131
156
155
131
132
157
156
132
133
158
157
133
134
159
158
134
135
160
159
135
136
161
160
136
137
162
161
137
138
163
162
138
139
164
163
139
140
165
164
140
141
166
165
141
142
167
166
142
143
168
167
143
144
169
168
144
145
170
169
145
146
171
170
146
147
172
171
147
148
173
172
148
149
174
173
150
151
176
175
151
152
177
176
152
153
178
177
153
154
179
178
154
155
180
179
155
156
181
180
156
157
182
181
157
158
183
182
158
159
184
183
159
160
185
184
160
161
186
185
161
162
187
186
162
163
188
187
163
164
189
188
164
165
190
189
165
166
191
190
166
167
192
191
167
168
193
192
168
169
194
193
169
170
195
194
170
171
196
195
171
172
197
196
172
173
198
197
173
174
199
198
175
176
201
200
176
177
202
201
177
178
203
202
178
179
204
203
179
180
205
204
180
181
206
205
181
182
207
206
182
183
208
207
183
184
209
208
184
185
210
209
185
186
211
210
186
187
212
211
187
188
213
212
188
189
214
213
189
190
215
214
190
191
216
215
191
192
217
216
192
193
218
217
193
194
219
218
194
195
220
219
195
196
221
220
196
197
222
221
197
198
223
222
198
199
224
223
200
201
226
225
201
202
227
226
202
203
228
227
203
204
229
228
204
205
230
229
205
206
231
230
206
207
232
231
207
208
233
232
208
209
234
233
209
210
235
234
210
211
236
235
211
212
237
236
212
213
238
237
213
214
239
238
214
215
240
239
215
216
241
240
216
217
242
241
217
218
243
242
218
219
244
243
219
220
245
244
220
221
246
245
221
222
247
246
222
223
248
247
223
224
249
248
225
226
251
250
226
227
252
251
227
228
253
252
228
229
254
253
229
230
255
254
230
231
256
255
231
232
257
256
232
233
258
257
233
234
259
258
234
235
260
259
235
236
261
260
236
237
262
261
237
238
263
262
238
239
264
263
239
240
265
264
240
241
266
265
241
242
267
266
242
243
268
267
243
244
269
268
244
245
270
269
245
246
271
270
246
247
272
271
247
248
273
272
248
249
274
273
250
251
276
275
251
252
277
276
252
253
278
277
253
254
279
278
254
255
280
279
255
256
281
280
256
257
282
281
257
258
283
282
258
259
284
283
265
266
286
285
266
267
287
286
267
268
288
287
268
269
289
288
269
270
290
289
270
271
291
290
271
272
292
291
272
273
293
292
273
274
294
293
275
276
296
295
276
277
297
296
277
278
298
297
278
279
299
298
279
280
300
299
280
281
301
300
281
282
302
301
282
283
303
302
283
284
304
303
285
286
306
305
286
287
307
306
287
288
308
307
288
289
309
308
289
290
310
309
290
291
311
310
291
292
312
311
292
293
313
312
293
294
314
313
295
296
316
315
296
297
317
316
297
298
318
317
298
299
319
318
299
300
320
319
300
301
321
320
301
302
322
321
302
303
323
322
303
304
324
323
305
306
326
325
306
307
327
326
307
308
328
327
308
309
329
328
309
310
330
329
310
311
331
330
311
312
332
331
312
313
333
332
313
314
334
333
315
316
336
335
316
317
337
336
317
318
338
337
318
319
339
338
319
320
340
339
320
321
341
340
321
322
342
341
322
323
343
342
323
324
344
343
325
326
351
350
326
327
352
351
327
328
353
352
328
329
354
353
329
330
355
354
330
331
356
355
331
332
357
356
332
333
358
357
333
334
359
358
335
336
361
360
336
337
362
361
337
338
363
362
338
339
364
363
339
340
365
364
340
341
366
365
341
342
367
366
342
343
368
367
343
344
369
368
344
345
370
369
345
346
371
370
346
347
372
371
347
348
373
372
348
349
374
373
349
350
375
374
350
351
376
375
351
352
377
376
352
353
378
377
353
354
379
378
354
355
380
379
355
356
381
380
356
357
382
381
357
358
383
382
358
359
384
383
360
361
386
385
361
362
387
386
362
363
388
387
363
364
389
388
364
365
390
389
365
366
391
390
366
367
392
391
367
368
393
392
368
369
394
393
369
370
395
394
370
371
396
395
371
372
397
396
372
373
398
397
373
374
399
398
374
375
400
399
375
376
401
400
376
377
402
401
377
378
403
402
378
379
404
403
379
380
405
404
380
381
406
405
381
382
407
406
382
383
408
407
383
384
409
408
385
386
411
410
386
387
412
411
387
388
413
412
388
389
414
413
389
390
415
414
390
391
416
415
391
392
417
416
392
393
418
417
393
394
419
418
394
395
420
419
395
396
421
420
396
397
422
421
397
398
423
422
398
399
424
423
399
400
425
424
400
401
426
425
401
402
427
426
402
403
428
427
403
404
429
428
404
405
430
429
405
406
431
430
406
407
432
431
407
408
433
432
408
409
434
433
410
411
436
435
411
412
437
436
412
413
438
437
413
414
439
438
414
415
440
439
415
416
441
440
416
417
442
441
417
418
443
442
418
419
444
443
419
420
445
444
420
421
446
445
421
422
447
446
422
423
448
447
423
424
449
448
424
425
450
449
425
426
451
450
426
427
452
451
427
428
453
452
428
429
454
453
429
430
455
454
430
431
456
455
431
432
457
456
432
433
458
457
433
434
459
458
435
436
461
460
436
437
462
461
437
438
463
462
438
439
464
463
439
440
465
464
440
441
466
465
441
442
467
466
442
443
468
467
443
444
469
468
444
445
470
469
445
446
471
470
446
447
472
471
447
448
473
472
448
449
474
473
449
450
475
474
450
451
476
475
451
452
477
476
452
453
478
477
453
454
479
478
454
455
480
479
455
456
481
480
456
457
482
481
457
458
483
482
458
459
484
483
460
461
486
485
461
462
487
486
462
463
488
487
463
464
489
488
464
465
490
489
465
466
491
490
466
467
492
491
467
468
493
492
468
469
494
493
469
470
495
494
470
471
496
495
471
472
497
496
472
473
498
497
473
474
499
498
474
475
500
499
475
476
501
500
476
477
502
501
477
478
503
502
478
479
504
503
479
480
505
504
480
481
506
505
481
482
507
506
482
483
508
507
483
484
509
508
485
486
511
510
486
487
512
511
487
488
513
512
488
489
514
513
489
490
515
514
490
491
516
515
491
492
517
516
492
493
518
517
493
494
519
518
494
495
520
519
495
496
521
520
496
497
522
521
497
498
523
522
498
499
524
523
499
500
525
524
500
501
526
525
501
502
527
526
502
503
528
527
503
504
529
528
504
505
530
529
505
506
531
530
506
507
532
531
507
508
533
532
508
509
534
533
510
511
536
535
511
512
537
536
512
513
538
537
513
514
539
538
514
515
540
539
515
516
541
540
516
517
542
541
517
518
543
542
518
519
544
543
519
520
545
544
520
521
546
545
521
522
547
546
522
523
548
547
523
524
549
548
524
525
550
549
525
526
551
550
526
527
552
551
527
528
553
552
528
529
554
553
529
530
555
554
530
531
556
555
531
532
557
556
532
533
558
557
533
534
559
558
535
536
561
560
536
537
562
561
537
538
563
562
538
539
564
563
539
540
565
564
540
541
566
565
541
542
567
566
542
543
568
567
543
544
569
568
544
545
570
569
545
546
571
570
546
547
572
571
547
548
573
572
548
549
574
573
549
550
575
574
550
551
576
575
551
552
577
576
552
553
578
577
553
554
579
578
554
555
580
579
555
556
581
580
556
557
582
581
557
558
583
582
558
559
584
583
560
561
586
585
561
562
587
586
562
563
588
587
563
564
589
588
564
565
590
589
565
566
591
590
566
567
592
591
567
568
593
592
568
569
594
593
569
570
595
594
570
571
596
595
571
572
597
596
572
573
598
597
573
574
599
598
574
575
600
599
575
576
601
600
576
577
602
601
577
578
603
602
578
579
604
603
579
580
605
604
580
581
606
605
581
582
607
606
582
583
608
607
583
584
609
608

</DataArray>
<DataArray type="Int64" Name="offsets" format="ascii">
4
8
12
16
20
24
28
32
36
40
44
48
52
56
60
64
68
72
76
80
84
88
92
96
100
104
108
112
116
120
124
128
132
136
140
144
148
152
156
160
164
168
172
176
180
184
188
192
196
200
204
208
212
216
220
224
228
232
236
240
244
248
252
256
260
264
268
272
276
280
284
288
292
296
300
304
308
312
316
320
324
328
332
336
340
344
348
352
356
360
364
368
372
376
380
384
388
392
396
400
404
408
412
416
420
424
428
432
436
440
444
448
452
456
460
464
468
472
476
480
484
488
492
496
500
504
508
512
516
520
524
528
532
536
540
544
548
552
556
560
564
568
572
576
580
584
588
592
596
600
604
608
612
616
620
624
628
632
636
640
644
648
652
656
660
664
668
672
676
680
684
688
692
696
700
704
708
712
716
720
724
728
732
736
740
744
748
752
756
760
764
768
772
776
780
784
788
792
796
800
804
808
812
816
820
824
828
832
836
840
844
848
852
856
860
864
868
872
876
880
884
888
892
896
900
904
908
912
916
920
924
928
932
936
940
944
948
952
956
960
964
968
972
976
980
984
988
992
996
1000
1004
1008
1012
1016
1020
1024
1028
1032
1036
1040
1044
1048
1052
1056
1060
1064
1068
1072
1076
1080
1084
1088
1092
1096
1100
1104
1108
1112
1116
1120
1124
1128
1132
1136
1140
1144
1148
1152
1156
1160
1164
1168
1172
1176
1180
1184
1188
1192
1196
1200
1204
1208
1212
1216
1220
1224
1228
1232
1236
1240
1244
1248
1252
1256
1260
1264
1268
1272
1276
1280
1284
1288
1292
1296
1300
1304
1308
1312
1316
1320
1324
1328
1332
1336
1340
1344
1348
1352
1356
1360
1364
1368
1372
1376
1380
1384
1388
1392
1396
1400
1404
1408
1412
1416
1420
1424
1428
1432
1436
1440
1444
1448
1452
1456
1460
1464
1468
1472
1476
1480
1484
1488
1492
1496
1500
1504
1508
1512
1516
1520
1524
1528
1532
1536
1540
1544
1548
1552
1556
1560
1564
1568
1572
1576
1580
1584
1588
1592
1596
1600
1604
1608
1612
1616
1620
1624
1628
1632
1636
1640
1644
1648
1652
1656
1660
1664
1668
1672
1676
1680
1684
1688
1692
1696
1700
1704
1708
1712
1716
1720
1724
1728
1732
1736
1740
1744
1748
1752
1756
1760
1764
1768
1772
1776
1780
1784
1788
1792
1796
1800
1804
1808
1812
1816
1820
1824
1828
1832
1836
1840
1844
1848
1852
1856
1860
1864
1868
1872
1876
1880
1884
1888
1892
1896
1900
1904
1908
1912
1916
1920
1924
1928
1932
1936
1940
1944
1948
1952
1956
1960
1964
1968
1972
1976
1980
1984
1988
1992
1996
2000
2004
2008
2012
2016
2020
2024
2028
2032
2036
2040
2044
2048
2052
2056
2060
2064
2068
2072
2076
2080
2084
2088
2092
2096
2100
2104
2108
2112
2116
2120
2124
2128
2132
2136
2140
2144
2148
2152
2156
2160
2164
2168
2172
2176
2180
2184
2188
2192
2196
2200
2204
2208

</DataArray>
<DataArray type="Int64" Name="types" format="ascii">
9
9
9
9
9
9
9
9
9
9
9
9
9
9
9
9
9
9
9
9
9
9
9
9
9
9
9
9
9
9
9
9
9
9
9
9
9
9
9
9
9
9
9
9
9
9
9
9
9
9
9
9
9
9
9
9
9
9
9
9
9
9
9
9
9
9
9
9
9
9
9
9
9
9
9
9
9
9
9
9
9
9
9
9
9
9
9
9
9
9
9
9
9
9
9
9
9
9
9
9
9
9
9
9
9
9
9
9
9
9
9
9
9
9
9
9
9
9
9
9
9
9
9
9
9
9
9
9
9
9
9
9
9
9
9
9
9
9
9
9
9
9
9
9
9
9
9
9
9
9
9
9
9
9
9
9
9
9
9
9
9
9
9
9
9
9
9
9
9
9
9
9
9
9
9
9
9
9
9
9
9
9
9
9
9
9
9
9
9
9
9
9
9
9
9
9
9
9
9
9
9
9
9
9
9
9
9
9
9
9
9
9
9
9
9
9
9
9
9
9
9
9
9
9
9
9
9
9
9
9
9
9
9
9
9
9
9
9
9
9
9
9
9
9
9
9
9
9
9
9
9
9
9
9
9
9
9
9
9
9
9
9
9
9
9
9
9
9
9
9
9
9
9
9
9
9
9
9
9
9
9
9
9
9
9
9
9
9
9
9
9
9
9
9
9
9
9
9
9
9
9
9
9
9
9
9
9
9
9
9
9
9
9
9
9
9
9
9
9
9
9
9
9
9
9
9
9
9
9
9
9
9
9
9
9
9
9
9
9
9
9
9
9
9
9
9
9
9
9
9
9
9
9
9
9
9
9
9
9
9
9
9
9
9
9
9
9
9
9
9
9
9
9
9
9
9
9
9
9
9
9
9
9
9
9
9
9
9
9
9
9
9
9
9
9
9
9
9
9
9
9
9
9
9
9
9
9
9
9
9
9
9
9
9
9
9
9
9
9
9
9
9
9
9
9
9
9
9
9
9
9
9
9
9
9
9
9
9
9
9
9
9
9
9
9
9
9
9
9
9
9
9
9
9
9
9
9
9
9
9
9
9
9
9
9
9
9
9
9
9
9
9
9
9
9
9
9
9
9
9
9
9
9
9
9
9
9
9
9
9
9
9
9
9
9
9
9
9
9
9
9
9
9
9
9
9
9
9
9
9
9
9
9
9
9
9
9
9
9
9
9
9
9
9
9
9
9
9
9
9
9
9
9
9
9
9
9
9
9
9
9
9
9
9
9
9
9
9
9
9
9
9

</DataArray>
</Cells>
</Piece>
</UnstructuredGrid>
</VTKFile>
